<?xml version="1.0" standalone="no"?>
<!DOCTYPE svg PUBLIC "-//W3C//DTD SVG 20010904//EN"
 "http://www.w3.org/TR/2001/REC-SVG-20010904/DTD/svg10.dtd">
<svg version="1.0" xmlns="http://www.w3.org/2000/svg"
 width="16.000000pt" height="16.000000pt" viewBox="0 0 16.000000 16.000000"
 preserveAspectRatio="xMidYMid meet">

<g transform="translate(0.000000,16.000000) scale(0.100000,-0.100000)"
fill="#000000" stroke="none">
<path d="M53 133 c-28 -19 -30 -43 -3 -43 22 0 27 -15 8 -23 -7 -3 3 -5 22 -5
19 0 29 2 23 5 -20 8 -15 23 7 23 28 0 25 24 -5 44 -29 19 -24 19 -52 -1z"/>
<path d="M7 44 c-4 -4 -7 -12 -7 -18 0 -6 5 -4 10 4 9 13 11 13 21 0 9 -12 10
-12 7 -1 -5 17 -21 25 -31 15z"/>
<path d="M67 44 c-10 -11 -8 -24 4 -24 5 0 7 5 4 10 -3 6 -2 10 4 10 5 0 12
-5 14 -10 3 -6 4 -5 3 2 -3 14 -20 21 -29 12z"/>
<path d="M127 44 c-10 -11 -8 -24 4 -24 5 0 7 5 4 10 -3 6 -2 10 4 10 5 0 12
-5 14 -10 3 -6 4 -5 3 2 -3 14 -20 21 -29 12z"/>
</g>
</svg>
